<svg width="100" height="20" viewBox="0 0 100 20" fill="none" xmlns="http://www.w3.org/2000/svg">
<path d="M40.3604 10.0003C40.3604 15.4252 36.0851 19.8687 30.2033 19.8687C24.3215 19.8687 20.1008 15.4797 20.1008 10.0548V10.0003C20.1008 4.57535 24.376 0.131836 30.2578 0.131836C36.1396 0.131836 40.3604 4.52083 40.3604 9.94574V10.0003ZM35.9762 10.0548V10.0003C35.9762 6.72896 33.5799 4.00287 30.2033 4.00287C26.8267 4.00287 24.4849 6.67444 24.4849 9.94574V10.0003C24.4849 13.2716 26.8812 15.9976 30.2578 15.9976C33.6344 15.9976 35.9762 13.3261 35.9762 10.0548ZM57.7063 4.33H51.9061V19.5415H47.7126V4.33H41.9125V0.458966H57.7063V4.33ZM64.8135 0.458966V11.2543C64.8135 14.362 66.3656 15.9704 68.9253 15.9704C71.485 15.9704 73.0371 14.4165 73.0371 11.3906V0.458966H77.2306V11.227C77.2306 17.0063 73.9902 19.8414 68.8708 19.8414C63.7515 19.8414 60.62 16.979 60.62 11.3633V0.458966H64.8135ZM85.4588 0.458966L90.4693 8.52817L95.4797 0.458966H100V19.5415H95.8337V7.08335L90.4693 15.2343H90.3604L85.0504 7.16513V19.5415H80.9385V0.458966H85.4588ZM3.86675 0.458966L12.7984 12.2084V0.458966H16.9375V19.5415H13.3702L4.13906 7.41048V19.3181L0 13.8733V0.458966H3.86675Z" fill="black"/>
</svg>
