<svg width="24" height="24" viewBox="0 0 24 24" fill="none" xmlns="http://www.w3.org/2000/svg">
<g clip-path="url(#clip0_5873_10511)">
<path opacity="0.2" d="M12 24C18.6274 24 24 18.6274 24 12C24 5.37258 18.6274 0 12 0C5.37258 0 0 5.37258 0 12C0 18.6274 5.37258 24 12 24Z" fill="#8E44EC"/>
<path d="M17.749 8.25063C17.9098 8.41152 18.0001 8.62967 18.0001 8.85713C18.0001 9.08459 17.9098 9.30274 17.749 9.46363L10.893 16.3206C10.8133 16.4004 10.7187 16.4637 10.6145 16.5068C10.5104 16.55 10.3987 16.5722 10.286 16.5722C10.1732 16.5722 10.0616 16.55 9.95743 16.5068C9.85328 16.4637 9.75865 16.4004 9.67897 16.3206L6.25097 12.8916C6.09683 12.7294 6.01217 12.5134 6.01502 12.2897C6.01788 12.0659 6.10803 11.8521 6.26626 11.6939C6.42448 11.5357 6.63826 11.4455 6.862 11.4427C7.08575 11.4398 7.30176 11.5245 7.46397 11.6786L10.287 14.4986L16.538 8.25063C16.6177 8.17087 16.7123 8.10759 16.8164 8.06442C16.9206 8.02124 17.0322 7.99902 17.145 7.99902C17.2577 7.99902 17.3694 8.02124 17.4735 8.06442C17.5777 8.10759 17.6723 8.17087 17.752 8.25063H17.749Z" fill="#8E44EC"/>
</g>
<defs>
<clipPath id="clip0_5873_10511">
<rect width="24" height="24" fill="white"/>
</clipPath>
</defs>
</svg>
